<svg width="221" height="165" viewBox="0 0 221 165" fill="none" xmlns="http://www.w3.org/2000/svg">
<rect y="38.0769" width="217.722" height="126.923" rx="15" fill="#C5B873"/>
<g filter="url(#filter0_d)">
<path d="M173.971 6.22553C175.023 3.83933 178.409 3.83933 179.461 6.22553L187.302 24.0082C187.83 25.2047 189.071 25.9216 190.371 25.7803L209.692 23.6793C212.285 23.3974 213.977 26.3295 212.437 28.4338L200.957 44.1155C200.185 45.1706 200.185 46.6045 200.957 47.6596L212.437 63.3414C213.977 65.4456 212.285 68.3778 209.692 68.0958L190.371 65.9949C189.071 65.8535 187.83 66.5705 187.302 67.767L179.461 85.5496C178.409 87.9358 175.023 87.9358 173.971 85.5496L166.13 67.767C165.603 66.5705 164.361 65.8535 163.061 65.9949L143.74 68.0958C141.148 68.3778 139.455 65.4456 140.995 63.3414L152.475 47.6596C153.248 46.6045 153.248 45.1706 152.475 44.1155L140.995 28.4338C139.455 26.3295 141.148 23.3974 143.74 23.6793L163.061 25.7803C164.361 25.9216 165.603 25.2047 166.13 24.0082L173.971 6.22553Z" fill="#9E9A81"/>
<circle cx="176.716" cy="45.8878" r="13.1107" fill="#C5B873"/>
</g>
<g filter="url(#filter1_d)">
<rect x="20.5029" y="72.2485" width="105.444" height="9.76331" rx="4.88166" fill="#9E9A81"/>
</g>
<g filter="url(#filter2_d)">
<rect x="20.5029" y="121.065" width="78.1065" height="9.76331" rx="4.88166" fill="#9E9A81"/>
</g>
<g filter="url(#filter3_d)">
<rect x="20.5029" y="96.6567" width="105.444" height="9.76331" rx="4.88166" fill="#9E9A81"/>
</g>
<defs>
<filter id="filter0_d" x="136.408" y="4.43579" width="80.6155" height="90.9034" filterUnits="userSpaceOnUse" color-interpolation-filters="sRGB">
<feFlood flood-opacity="0" result="BackgroundImageFix"/>
<feColorMatrix in="SourceAlpha" type="matrix" values="0 0 0 0 0 0 0 0 0 0 0 0 0 0 0 0 0 0 127 0"/>
<feOffset dy="4"/>
<feGaussianBlur stdDeviation="2"/>
<feColorMatrix type="matrix" values="0 0 0 0 0 0 0 0 0 0 0 0 0 0 0 0 0 0 0.45 0"/>
<feBlend mode="normal" in2="BackgroundImageFix" result="effect1_dropShadow"/>
<feBlend mode="normal" in="SourceGraphic" in2="effect1_dropShadow" result="shape"/>
</filter>
<filter id="filter1_d" x="16.5029" y="72.2485" width="113.444" height="17.7633" filterUnits="userSpaceOnUse" color-interpolation-filters="sRGB">
<feFlood flood-opacity="0" result="BackgroundImageFix"/>
<feColorMatrix in="SourceAlpha" type="matrix" values="0 0 0 0 0 0 0 0 0 0 0 0 0 0 0 0 0 0 127 0"/>
<feOffset dy="4"/>
<feGaussianBlur stdDeviation="2"/>
<feColorMatrix type="matrix" values="0 0 0 0 0 0 0 0 0 0 0 0 0 0 0 0 0 0 0.45 0"/>
<feBlend mode="normal" in2="BackgroundImageFix" result="effect1_dropShadow"/>
<feBlend mode="normal" in="SourceGraphic" in2="effect1_dropShadow" result="shape"/>
</filter>
<filter id="filter2_d" x="16.5029" y="121.065" width="86.1065" height="17.7633" filterUnits="userSpaceOnUse" color-interpolation-filters="sRGB">
<feFlood flood-opacity="0" result="BackgroundImageFix"/>
<feColorMatrix in="SourceAlpha" type="matrix" values="0 0 0 0 0 0 0 0 0 0 0 0 0 0 0 0 0 0 127 0"/>
<feOffset dy="4"/>
<feGaussianBlur stdDeviation="2"/>
<feColorMatrix type="matrix" values="0 0 0 0 0 0 0 0 0 0 0 0 0 0 0 0 0 0 0.45 0"/>
<feBlend mode="normal" in2="BackgroundImageFix" result="effect1_dropShadow"/>
<feBlend mode="normal" in="SourceGraphic" in2="effect1_dropShadow" result="shape"/>
</filter>
<filter id="filter3_d" x="16.5029" y="96.6567" width="113.444" height="17.7633" filterUnits="userSpaceOnUse" color-interpolation-filters="sRGB">
<feFlood flood-opacity="0" result="BackgroundImageFix"/>
<feColorMatrix in="SourceAlpha" type="matrix" values="0 0 0 0 0 0 0 0 0 0 0 0 0 0 0 0 0 0 127 0"/>
<feOffset dy="4"/>
<feGaussianBlur stdDeviation="2"/>
<feColorMatrix type="matrix" values="0 0 0 0 0 0 0 0 0 0 0 0 0 0 0 0 0 0 0.45 0"/>
<feBlend mode="normal" in2="BackgroundImageFix" result="effect1_dropShadow"/>
<feBlend mode="normal" in="SourceGraphic" in2="effect1_dropShadow" result="shape"/>
</filter>
</defs>
</svg>
