<svg width="157" height="157" viewBox="0 0 157 157" fill="none" xmlns="http://www.w3.org/2000/svg">
<g filter="url(#filter0_d)">
<g clip-path="url(#clip0)">
<path d="M147.494 58.5347L136.042 56.0452C135.046 52.9963 133.813 50.0225 132.357 47.1578L138.697 37.2962C139.829 35.5342 139.58 33.2209 138.1 31.7408L120.259 13.9002C118.779 12.4201 116.466 12.1711 114.704 13.3034L104.842 19.6432C101.978 18.187 99.0037 16.9536 95.9548 15.9577L93.4653 4.50583C93.0208 2.45963 91.2088 1 89.1148 1H63.8852C61.7912 1 59.9792 2.45963 59.5347 4.50583L57.0452 15.9577C53.9963 16.9536 51.0225 18.187 48.1578 19.6432L38.2962 13.3034C36.5342 12.1711 34.2209 12.4201 32.7408 13.9002L14.9002 31.7408C13.4201 33.2209 13.1711 35.5342 14.3034 37.2962L20.6432 47.1578C19.187 50.0225 17.9536 52.9963 16.9577 56.0452L5.50583 58.5347C3.45963 58.9803 2 60.7912 2 62.8852V88.1148C2 90.2088 3.45963 92.0197 5.50583 92.4653L16.9577 94.9548C17.9536 98.0037 19.187 100.978 20.6432 103.842L14.3034 113.704C13.1711 115.466 13.4201 117.779 14.9002 119.259L32.7408 137.1C34.2209 138.58 36.5342 138.829 38.2962 137.697L48.1578 131.357C51.0225 132.813 53.9963 134.046 57.0452 135.042L59.5347 146.494C59.9792 148.54 61.7912 150 63.8852 150H89.1148C91.2088 150 93.0208 148.54 93.4653 146.494L95.9548 135.042C99.0037 134.046 101.978 132.813 104.842 131.357L114.704 137.697C116.466 138.829 118.779 138.581 120.259 137.1L138.1 119.259C139.58 117.779 139.829 115.466 138.697 113.704L132.357 103.842C133.813 100.978 135.046 98.0037 136.042 94.9548L147.494 92.4653C149.54 92.0197 151 90.2088 151 88.1148V62.8852C151 60.7912 149.54 58.9803 147.494 58.5347ZM103.213 75.5C103.213 90.2293 91.2293 102.213 76.5 102.213C61.7707 102.213 49.7868 90.2293 49.7868 75.5C49.7868 60.7707 61.7707 48.7868 76.5 48.7868C91.2293 48.7868 103.213 60.7707 103.213 75.5Z" fill="#C5B873"/>
</g>
</g>
<defs>
<filter id="filter0_d" x="0" y="0" width="157" height="157" filterUnits="userSpaceOnUse" color-interpolation-filters="sRGB">
<feFlood flood-opacity="0" result="BackgroundImageFix"/>
<feColorMatrix in="SourceAlpha" type="matrix" values="0 0 0 0 0 0 0 0 0 0 0 0 0 0 0 0 0 0 127 0"/>
<feOffset dx="2" dy="3"/>
<feGaussianBlur stdDeviation="2"/>
<feColorMatrix type="matrix" values="0 0 0 0 0 0 0 0 0 0 0 0 0 0 0 0 0 0 0.45 0"/>
<feBlend mode="normal" in2="BackgroundImageFix" result="effect1_dropShadow"/>
<feBlend mode="normal" in="SourceGraphic" in2="effect1_dropShadow" result="shape"/>
</filter>
<clipPath id="clip0">
<rect x="2" y="1" width="149" height="149" fill="white"/>
</clipPath>
</defs>
</svg>
