<svg width="120" height="159" viewBox="0 0 120 159" fill="none" xmlns="http://www.w3.org/2000/svg">
<g filter="url(#filter0_d)">
<path d="M113.182 89.3788C111.479 66.8664 101.156 52.7588 92.0493 40.3096C83.6165 28.7844 76.3333 18.8318 76.3333 4.15017C76.3333 2.97087 75.6829 1.893 74.6515 1.35259C73.6169 0.808936 72.3739 0.897972 71.4334 1.59199C57.7561 11.5293 46.3442 28.2779 42.3577 44.2585C39.5903 55.3842 39.2241 67.8918 39.1727 76.1525C26.5419 73.4133 23.6806 54.2297 23.6504 54.0207C23.5082 53.0257 22.9094 52.1598 22.0383 51.6869C21.1582 51.2202 20.1237 51.1863 19.2314 51.6347C18.5691 51.9602 2.97388 60.0059 2.06649 92.1301C2.0029 93.1988 2 94.2708 2 95.3425C2 126.552 27.0105 151.945 57.75 151.945C57.7924 151.948 57.8377 151.954 57.874 151.945C57.8862 151.945 57.8981 151.945 57.9132 151.945C88.5771 151.855 113.5 126.496 113.5 95.3425C113.5 93.7732 113.182 89.3788 113.182 89.3788ZM57.75 145.656C47.5024 145.656 39.1666 136.64 39.1666 125.557C39.1666 125.179 39.1637 124.798 39.1907 124.332C39.3147 119.658 40.189 116.467 41.1478 114.345C42.9446 118.264 46.1566 121.866 51.3741 121.866C53.0861 121.866 54.4715 120.459 54.4715 118.721C54.4715 114.244 54.5623 109.079 55.6602 104.417C56.6373 100.283 58.9721 95.8859 61.9303 92.3607C63.246 96.9363 65.8111 100.64 68.3155 104.254C71.8997 109.425 75.6048 114.772 76.2552 123.889C76.2944 124.43 76.3339 124.973 76.3339 125.557C76.3333 136.639 67.9975 145.656 57.75 145.656Z" fill="#C5B873"/>
</g>
<defs>
<filter id="filter0_d" x="0" y="0" width="119.5" height="158.95" filterUnits="userSpaceOnUse" color-interpolation-filters="sRGB">
<feFlood flood-opacity="0" result="BackgroundImageFix"/>
<feColorMatrix in="SourceAlpha" type="matrix" values="0 0 0 0 0 0 0 0 0 0 0 0 0 0 0 0 0 0 127 0"/>
<feOffset dx="2" dy="3"/>
<feGaussianBlur stdDeviation="2"/>
<feColorMatrix type="matrix" values="0 0 0 0 0 0 0 0 0 0 0 0 0 0 0 0 0 0 0.45 0"/>
<feBlend mode="normal" in2="BackgroundImageFix" result="effect1_dropShadow"/>
<feBlend mode="normal" in="SourceGraphic" in2="effect1_dropShadow" result="shape"/>
</filter>
</defs>
</svg>
