<svg width="133" height="165" viewBox="0 0 133 165" fill="none" xmlns="http://www.w3.org/2000/svg">
<rect width="132" height="165" rx="15" fill="#C5B873"/>
<g filter="url(#filter0_d)">
<rect x="29" y="63" width="73" height="10" rx="5" fill="#9E9A81"/>
<rect x="29" y="137" width="24" height="10" rx="5" fill="#9E9A81"/>
<rect x="54" y="18" width="24" height="10" rx="5" fill="#9E9A81"/>
<rect x="29" y="45" width="73" height="10" rx="5" fill="#9E9A81"/>
</g>
<g filter="url(#filter1_d)">
<circle cx="94.5" cy="130.5" r="16.5" fill="#9E9A81"/>
<circle cx="94.5" cy="130.5" r="10.5" fill="#C5B873"/>
</g>
<g filter="url(#filter2_d)">
<path d="M66.3802 97.5797C66.3827 99.5098 66.4089 101.44 66.3877 103.37C66.3721 104.786 66.3815 108.972 66.0263 107.602C65.8202 106.807 65.8003 105.974 65.7477 105.155C65.5827 102.585 65.5489 99.4225 65.6422 96.8418C65.6855 95.6451 65.6688 93.3673 66.2296 92.1057C66.4557 91.5969 66.8439 93.0612 66.9675 93.6041C69.0795 102.88 69.6992 112.505 70.2052 121.976C70.3031 123.809 70.4025 125.63 70.5591 127.457C70.599 127.923 70.4906 127.833 70.0697 127.608C67.4808 126.22 64.9336 124.402 62.6906 122.518C61.1575 121.23 59.2009 119.349 60.3414 117.157C61.4607 115.005 63.7895 113.215 65.6874 111.886C70.9156 108.225 76.879 105.895 82.7194 103.423C90.8213 99.9935 98.8774 96.3722 107.04 93.1071" stroke="#9E9A81" stroke-width="2" stroke-linecap="round" stroke-linejoin="round"/>
<path d="M68.2773 99.2061C69.5447 103.624 71.322 107.888 73.1264 112.112C73.3033 112.526 73.6982 113.843 74.2408 114.115" stroke="#9E9A81" stroke-width="2" stroke-linecap="round" stroke-linejoin="round"/>
<path d="M72.3481 102.258C73.0287 104.559 73.6562 106.882 74.6775 109.064C74.8417 109.414 75.0292 109.754 75.229 110.086C75.3545 110.295 75.4571 110.638 75.7002 110.643C75.7532 110.644 75.7671 110.559 75.7859 110.509C75.9211 110.154 76.0199 109.536 76.0697 109.23C76.4579 106.842 76.557 104.416 76.557 102.001C76.557 100.283 76.481 98.5724 76.3642 96.8599C76.35 96.651 76.3334 96.4421 76.316 96.2334C76.2962 95.9949 76.2641 95.9298 76.3428 96.4904C76.5262 97.7969 76.8735 99.0737 77.3067 100.319C77.9926 102.291 78.8172 104.659 80.2518 106.242C80.8671 106.92 81.0579 106.307 81.13 105.711C81.2753 104.511 81.2201 103.26 81.2157 102.054C81.2042 98.911 81.0974 95.743 80.1501 92.7207C80.1281 92.6506 80.124 92.5709 80.0805 92.5118C79.9808 92.3766 80.0826 92.8484 80.1019 93.0152C80.2457 94.2617 80.5277 95.4727 80.8944 96.6725C81.6866 99.2645 82.7566 101.763 84.3 103.993" stroke="#9E9A81" stroke-width="2" stroke-linecap="round" stroke-linejoin="round"/>
<path d="M89.6175 95.0242C89.5798 95.802 89.2839 100.688 89.399 101.984C89.5209 103.358 90.0618 102.274 90.3496 101.831C91.7221 99.7201 92.9781 97.7446 94.8294 95.9967C94.9086 95.9219 96.5221 94.179 96.2936 95.4066C95.8208 97.9462 94.3737 100.149 92.8572 102.181C92.2165 103.039 90.9142 104.184 90.5462 105.257C90.4705 105.478 90.5529 105.449 90.8194 105.421C91.7248 105.324 92.611 105.095 93.5073 104.935C104.74 102.928 116.215 102.408 127.576 101.515" stroke="#9E9A81" stroke-width="2" stroke-linecap="round" stroke-linejoin="round"/>
</g>
<path d="M101.058 137H100.428L97.872 131.852H90.708L88.206 137H87.576L94.308 123.176L101.058 137ZM97.656 131.33L94.272 124.472L90.96 131.33H97.656Z" fill="#A39E7F"/>
<defs>
<filter id="filter0_d" x="25" y="18" width="81" height="137" filterUnits="userSpaceOnUse" color-interpolation-filters="sRGB">
<feFlood flood-opacity="0" result="BackgroundImageFix"/>
<feColorMatrix in="SourceAlpha" type="matrix" values="0 0 0 0 0 0 0 0 0 0 0 0 0 0 0 0 0 0 127 0"/>
<feOffset dy="4"/>
<feGaussianBlur stdDeviation="2"/>
<feColorMatrix type="matrix" values="0 0 0 0 0 0 0 0 0 0 0 0 0 0 0 0 0 0 0.45 0"/>
<feBlend mode="normal" in2="BackgroundImageFix" result="effect1_dropShadow"/>
<feBlend mode="normal" in="SourceGraphic" in2="effect1_dropShadow" result="shape"/>
</filter>
<filter id="filter1_d" x="74" y="114" width="41" height="41" filterUnits="userSpaceOnUse" color-interpolation-filters="sRGB">
<feFlood flood-opacity="0" result="BackgroundImageFix"/>
<feColorMatrix in="SourceAlpha" type="matrix" values="0 0 0 0 0 0 0 0 0 0 0 0 0 0 0 0 0 0 127 0"/>
<feOffset dy="4"/>
<feGaussianBlur stdDeviation="2"/>
<feColorMatrix type="matrix" values="0 0 0 0 0 0 0 0 0 0 0 0 0 0 0 0 0 0 0.45 0"/>
<feBlend mode="normal" in2="BackgroundImageFix" result="effect1_dropShadow"/>
<feBlend mode="normal" in="SourceGraphic" in2="effect1_dropShadow" result="shape"/>
</filter>
<filter id="filter2_d" x="54.9995" y="90.9985" width="77.5764" height="45.7939" filterUnits="userSpaceOnUse" color-interpolation-filters="sRGB">
<feFlood flood-opacity="0" result="BackgroundImageFix"/>
<feColorMatrix in="SourceAlpha" type="matrix" values="0 0 0 0 0 0 0 0 0 0 0 0 0 0 0 0 0 0 127 0"/>
<feOffset dy="4"/>
<feGaussianBlur stdDeviation="2"/>
<feColorMatrix type="matrix" values="0 0 0 0 0 0 0 0 0 0 0 0 0 0 0 0 0 0 0.45 0"/>
<feBlend mode="normal" in2="BackgroundImageFix" result="effect1_dropShadow"/>
<feBlend mode="normal" in="SourceGraphic" in2="effect1_dropShadow" result="shape"/>
</filter>
</defs>
</svg>
