<svg width="111" height="148" viewBox="0 0 111 148" fill="none" xmlns="http://www.w3.org/2000/svg">
<g filter="url(#filter0_d)">
<path d="M99.2776 29.0491V16.8141C102.682 14.799 105 11.0929 105 6.80999V3.90513C105 2.29937 103.72 1 102.139 1H4.86119C3.27972 1 2 2.29937 2 3.90513V6.81026C2 11.0929 4.31803 14.799 7.72212 16.8144V29.0491C7.72212 40.5614 12.5559 51.5801 20.9828 59.2796L33.5029 70.7209L20.9828 82.1622C12.5559 89.8618 7.72212 100.88 7.72212 112.393V124.627C4.31803 126.643 2 130.349 2 134.632V137.537C2 139.142 3.27972 140.442 4.86119 140.442H102.139C103.72 140.442 105 139.142 105 137.537V134.632C105 130.349 102.682 126.643 99.2779 124.627V112.393C99.2779 100.88 94.4441 89.8618 86.0172 82.1622L73.4968 70.7209L86.0169 59.2796C94.4439 51.5801 99.2776 40.5612 99.2776 29.0491ZM78.3614 50.6437L61.1165 66.4031C59.9095 67.504 59.222 69.0727 59.222 70.7209C59.222 72.3692 59.9095 73.9382 61.1165 75.0387L78.3614 90.7981C84.3797 96.299 87.8331 104.171 87.8331 112.393V123.012H80.6789L55.7881 89.3143C54.7096 87.8505 52.2899 87.8505 51.2113 89.3143L26.3208 123.012H19.1666V112.393C19.1666 104.171 22.6201 96.2987 28.6386 90.7978L45.8835 75.0384C47.0905 73.9376 47.778 72.3689 47.778 70.7206C47.778 69.0724 47.0905 67.5034 45.8835 66.4028L28.6386 50.6435C22.6201 45.1429 19.1666 37.2704 19.1666 29.0491V18.4302H87.8331V29.0491C87.8331 37.2704 84.3797 45.1429 78.3614 50.6437Z" fill="#C5B873"/>
<path d="M73.2203 41.6704H33.7768C32.6451 41.6704 31.6197 42.3486 31.1616 43.3982C30.7034 44.4508 30.896 45.6764 31.6589 46.5275L51.5804 65.1891C52.1252 65.6913 52.8127 65.9407 53.4999 65.9407C54.1871 65.9407 54.8746 65.691 55.4193 65.1891L75.338 46.5275C76.1008 45.6764 76.2937 44.4508 75.8353 43.3982C75.3774 42.3486 74.352 41.6704 73.2203 41.6704Z" fill="#C5B873"/>
</g>
<defs>
<filter id="filter0_d" x="0" y="0" width="111" height="147.442" filterUnits="userSpaceOnUse" color-interpolation-filters="sRGB">
<feFlood flood-opacity="0" result="BackgroundImageFix"/>
<feColorMatrix in="SourceAlpha" type="matrix" values="0 0 0 0 0 0 0 0 0 0 0 0 0 0 0 0 0 0 127 0"/>
<feOffset dx="2" dy="3"/>
<feGaussianBlur stdDeviation="2"/>
<feColorMatrix type="matrix" values="0 0 0 0 0 0 0 0 0 0 0 0 0 0 0 0 0 0 0.45 0"/>
<feBlend mode="normal" in2="BackgroundImageFix" result="effect1_dropShadow"/>
<feBlend mode="normal" in="SourceGraphic" in2="effect1_dropShadow" result="shape"/>
</filter>
</defs>
</svg>
