<svg width="223" height="174" viewBox="0 0 223 174" fill="none" xmlns="http://www.w3.org/2000/svg">
<path d="M61 164.918C41.67 164.918 25.3596 148.709 32.4128 130.712C45.2684 97.9084 76.0595 74.8081 112 74.8081C147.94 74.8081 178.732 97.9084 191.587 130.712C198.64 148.709 182.33 164.918 163 164.918H61Z" fill="#C5B873"/>
<g filter="url(#filter0_d)">
<ellipse cx="111.654" cy="44.6764" rx="42.2403" ry="44.6764" fill="#C5B873"/>
</g>
<g filter="url(#filter1_d)">
<path d="M95.7784 121.108C97.6331 118.326 100.755 116.655 104.099 116.655H118.142C121.427 116.655 124.502 118.268 126.369 120.97L145.991 149.37C150.574 156.003 145.826 165.054 137.764 165.054H85.1656C77.1786 165.054 72.4147 156.153 76.8451 149.507L95.7784 121.108Z" fill="#9E9A81"/>
<rect width="5.92855" height="50.0256" rx="2.96428" transform="matrix(0.896853 0.442329 -0.403414 0.915018 140.048 77.5154)" fill="#9E9A81"/>
<rect width="5.92855" height="48.9619" rx="2.96428" transform="matrix(0.896853 -0.442329 0.403414 0.915018 77.2141 81.1108)" fill="#9E9A81"/>
</g>
<path d="M190 75.2823C171.775 75.2823 156.476 57.5544 171.223 46.8445C176.553 42.9735 183.024 40.7053 190 40.7053C196.976 40.7053 203.447 42.9735 208.777 46.8445C223.524 57.5544 208.225 75.2823 190 75.2823Z" fill="#C5B873"/>
<g filter="url(#filter2_d)">
<ellipse cx="189.867" cy="29.1433" rx="16.2085" ry="17.1433" fill="#C5B873"/>
</g>
<g filter="url(#filter3_d)">
<path d="M182.266 60.7356C183.921 58.2535 186.706 56.7627 189.689 56.7627C192.62 56.7627 195.364 58.202 197.03 60.6131L197.249 60.9304C201.458 67.0221 197.097 75.3346 189.693 75.3346C182.358 75.3346 177.983 67.1596 182.052 61.0565L182.266 60.7356Z" fill="#9E9A81"/>
<rect width="2.27491" height="19.1959" rx="1.13745" transform="matrix(0.896853 0.442329 -0.403414 0.915018 200.763 41.7441)" fill="#9E9A81"/>
<rect width="2.27491" height="18.7877" rx="1.13745" transform="matrix(0.896853 -0.442329 0.403414 0.915018 176.652 43.1238)" fill="#9E9A81"/>
</g>
<path d="M33 75.2823C14.7746 75.2823 -0.523515 57.5544 14.2231 46.8445C19.5531 42.9735 26.0237 40.7053 33 40.7053C39.9763 40.7053 46.4469 42.9735 51.7769 46.8445C66.5235 57.5544 51.2254 75.2823 33 75.2823Z" fill="#C5B873"/>
<g filter="url(#filter4_d)">
<ellipse cx="32.8672" cy="29.1433" rx="16.2085" ry="17.1433" fill="#C5B873"/>
</g>
<g filter="url(#filter5_d)">
<path d="M25.2658 60.7356C26.9205 58.2535 29.7062 56.7627 32.6893 56.7627C35.62 56.7627 38.3638 58.202 40.0297 60.6131L40.2489 60.9304C44.4578 67.0221 40.0975 75.3346 32.6932 75.3346C25.3581 75.3346 20.983 67.1596 25.0519 61.0565L25.2658 60.7356Z" fill="#9E9A81"/>
<rect width="2.27491" height="19.1959" rx="1.13745" transform="matrix(0.896853 0.442329 -0.403414 0.915018 43.7627 41.7441)" fill="#9E9A81"/>
<rect width="2.27491" height="18.7877" rx="1.13745" transform="matrix(0.896853 -0.442329 0.403414 0.915018 19.6519 43.1238)" fill="#9E9A81"/>
</g>
<defs>
<filter id="filter0_d" x="65.4136" y="0" width="92.4805" height="97.3527" filterUnits="userSpaceOnUse" color-interpolation-filters="sRGB">
<feFlood flood-opacity="0" result="BackgroundImageFix"/>
<feColorMatrix in="SourceAlpha" type="matrix" values="0 0 0 0 0 0 0 0 0 0 0 0 0 0 0 0 0 0 127 0"/>
<feOffset dy="4"/>
<feGaussianBlur stdDeviation="2"/>
<feColorMatrix type="matrix" values="0 0 0 0 0 0 0 0 0 0 0 0 0 0 0 0 0 0 0.55 0"/>
<feBlend mode="normal" in2="BackgroundImageFix" result="effect1_dropShadow"/>
<feBlend mode="normal" in="SourceGraphic" in2="effect1_dropShadow" result="shape"/>
</filter>
<filter id="filter1_d" x="71.1487" y="78.5256" width="80.632" height="94.5285" filterUnits="userSpaceOnUse" color-interpolation-filters="sRGB">
<feFlood flood-opacity="0" result="BackgroundImageFix"/>
<feColorMatrix in="SourceAlpha" type="matrix" values="0 0 0 0 0 0 0 0 0 0 0 0 0 0 0 0 0 0 127 0"/>
<feOffset dy="4"/>
<feGaussianBlur stdDeviation="2"/>
<feColorMatrix type="matrix" values="0 0 0 0 0 0 0 0 0 0 0 0 0 0 0 0 0 0 0.45 0"/>
<feBlend mode="normal" in2="BackgroundImageFix" result="effect1_dropShadow"/>
<feBlend mode="normal" in="SourceGraphic" in2="effect1_dropShadow" result="shape"/>
</filter>
<filter id="filter2_d" x="169.659" y="12" width="40.4169" height="42.2865" filterUnits="userSpaceOnUse" color-interpolation-filters="sRGB">
<feFlood flood-opacity="0" result="BackgroundImageFix"/>
<feColorMatrix in="SourceAlpha" type="matrix" values="0 0 0 0 0 0 0 0 0 0 0 0 0 0 0 0 0 0 127 0"/>
<feOffset dy="4"/>
<feGaussianBlur stdDeviation="2"/>
<feColorMatrix type="matrix" values="0 0 0 0 0 0 0 0 0 0 0 0 0 0 0 0 0 0 0.55 0"/>
<feBlend mode="normal" in2="BackgroundImageFix" result="effect1_dropShadow"/>
<feBlend mode="normal" in="SourceGraphic" in2="effect1_dropShadow" result="shape"/>
</filter>
<filter id="filter3_d" x="173.012" y="42.1318" width="33.4308" height="41.2027" filterUnits="userSpaceOnUse" color-interpolation-filters="sRGB">
<feFlood flood-opacity="0" result="BackgroundImageFix"/>
<feColorMatrix in="SourceAlpha" type="matrix" values="0 0 0 0 0 0 0 0 0 0 0 0 0 0 0 0 0 0 127 0"/>
<feOffset dy="4"/>
<feGaussianBlur stdDeviation="2"/>
<feColorMatrix type="matrix" values="0 0 0 0 0 0 0 0 0 0 0 0 0 0 0 0 0 0 0.45 0"/>
<feBlend mode="normal" in2="BackgroundImageFix" result="effect1_dropShadow"/>
<feBlend mode="normal" in="SourceGraphic" in2="effect1_dropShadow" result="shape"/>
</filter>
<filter id="filter4_d" x="12.6587" y="12" width="40.4169" height="42.2865" filterUnits="userSpaceOnUse" color-interpolation-filters="sRGB">
<feFlood flood-opacity="0" result="BackgroundImageFix"/>
<feColorMatrix in="SourceAlpha" type="matrix" values="0 0 0 0 0 0 0 0 0 0 0 0 0 0 0 0 0 0 127 0"/>
<feOffset dy="4"/>
<feGaussianBlur stdDeviation="2"/>
<feColorMatrix type="matrix" values="0 0 0 0 0 0 0 0 0 0 0 0 0 0 0 0 0 0 0.55 0"/>
<feBlend mode="normal" in2="BackgroundImageFix" result="effect1_dropShadow"/>
<feBlend mode="normal" in="SourceGraphic" in2="effect1_dropShadow" result="shape"/>
</filter>
<filter id="filter5_d" x="16.012" y="42.1318" width="33.4308" height="41.2027" filterUnits="userSpaceOnUse" color-interpolation-filters="sRGB">
<feFlood flood-opacity="0" result="BackgroundImageFix"/>
<feColorMatrix in="SourceAlpha" type="matrix" values="0 0 0 0 0 0 0 0 0 0 0 0 0 0 0 0 0 0 127 0"/>
<feOffset dy="4"/>
<feGaussianBlur stdDeviation="2"/>
<feColorMatrix type="matrix" values="0 0 0 0 0 0 0 0 0 0 0 0 0 0 0 0 0 0 0.45 0"/>
<feBlend mode="normal" in2="BackgroundImageFix" result="effect1_dropShadow"/>
<feBlend mode="normal" in="SourceGraphic" in2="effect1_dropShadow" result="shape"/>
</filter>
</defs>
</svg>
