<svg width="34" height="34" viewBox="0 0 34 34" fill="none" xmlns="http://www.w3.org/2000/svg">
<g clip-path="url(#clip0)">
<path d="M33.675 9.44314L22.9234 5.34411C22.6627 5.24476 22.3709 5.3755 22.2715 5.63594C22.1722 5.89664 22.3029 6.18846 22.5636 6.28781L32.0776 9.91499L25.4914 12.4262L17.2083 8.67584C16.9541 8.56067 16.655 8.67351 16.5401 8.92746C16.4249 9.18167 16.5378 9.48076 16.7917 9.59593L24.162 12.9331L17 15.6635L1.92241 9.91499L17 4.16644L20.7156 5.58328C20.9758 5.68237 21.2679 5.55189 21.3675 5.2912C21.4669 5.03076 21.3361 4.73894 21.0754 4.63959L17.18 3.15426C17.0641 3.11017 16.9359 3.10991 16.82 3.15426L0.325027 9.44314C0.12944 9.51785 0 9.70566 0 9.91499V12.2211C0 12.4304 0.12944 12.6182 0.325027 12.6929L5.47592 14.6566V16.4065C5.47592 16.6853 5.70186 16.9115 5.98071 16.9115C6.25983 16.9115 6.48576 16.6853 6.48576 16.4065V15.0418L16.82 18.9818C16.8781 19.0038 16.939 19.015 17 19.015C17.061 19.015 17.1219 19.0038 17.18 18.9818L24.9698 16.0119V24.0035C22.5242 25.2873 19.7818 25.9752 17 25.9752C13.2034 25.9752 9.47949 24.6953 6.48576 22.3662V18.4264C6.48576 18.1476 6.25983 17.9214 5.98071 17.9214C5.70186 17.9214 5.47592 18.1476 5.47592 18.4264V22.6108C5.47592 22.7641 5.54544 22.9091 5.66502 23.0048C8.86887 25.5716 12.8945 26.985 17 26.985C19.7688 26.985 22.5008 26.3412 24.9698 25.1353V27.1791C24.1561 27.4014 23.5561 28.1466 23.5561 29.0299C23.5561 30.0877 24.4167 30.9487 25.4746 30.9487C26.5327 30.9487 27.3934 30.0877 27.3934 29.0299C27.3934 28.1466 26.7934 27.4014 25.9796 27.1791V24.6019C26.8027 24.1337 27.5913 23.6009 28.3352 23.0048C28.4548 22.9091 28.5246 22.7641 28.5246 22.6108V14.6563L33.675 12.6926C33.8706 12.6182 34 12.4304 34 12.2208V9.91499C34 9.70566 33.8706 9.51785 33.675 9.44314ZM26.3835 29.0299C26.3835 29.5308 25.9757 29.9386 25.4746 29.9386C24.9737 29.9386 24.5659 29.5308 24.5659 29.0299C24.5659 28.5287 24.9737 28.1209 25.4746 28.1209C25.9757 28.1209 26.3835 28.5287 26.3835 29.0299ZM1.00984 10.6481L16.4949 16.552V17.7769L1.00984 11.8729V10.6481ZM17.5051 17.7769V16.552L24.9698 13.7059V14.931L17.5051 17.7769ZM27.5145 22.3659C27.0219 22.7493 26.5091 23.1036 25.9796 23.4289V15.6267L27.5145 15.0415V22.3659ZM25.9796 14.5458V13.3209L32.9902 10.6481V11.8729L25.9796 14.5458Z" fill="#9E9A81"/>
</g>
<defs>
<clipPath id="clip0">
<rect width="34" height="34" fill="white"/>
</clipPath>
</defs>
</svg>
